# xmcd CD database file
#
# Track frame offsets:
#	225
#	15871
#	29715
#	45908
#	60888
#	72027
#	87580
#	101735
#	113098
#	127482
#	144232
#	164538
#
# Disc length: 2422 seconds
#
# Revision: 0
# Processed by: cddbd v1.5.1PL2 Copyright (c) Steve Scherf et al.
# Submitted via: CDex 1.51
#
DISCID=9d09730c
DTITLE=Roxanne Potvin - The Way It Feels
DYEAR=2006
DGENRE=Blues
TTITLE0=A LOVE THAT'S SIMPLE
TTITLE1=I WANT TO (Do Everything For You)
TTITLE2=HURTING CHILD
TTITLE3=CAUGHT UP
TTITLE4=LA MERVEILLE
TTITLE5=WHILE I WAIT FOR YOU
TTITLE6=YOUR LOVE KEEPS WORKING ON ME
TTITLE7=SAY IT
TTITLE8=DON'T PAY ATTENTION
TTITLE9=SWEET THOUGHTS OF YOU
TTITLE10=LET IT FEEL THE WAY IT FEELS
TTITLE11=BREAK AWAY
EXTD=YEAR: 2006
EXTT0=
EXTT1=
EXTT2=
EXTT3=
EXTT4=
EXTT5=
EXTT6=
EXTT7=
EXTT8=
EXTT9=
EXTT10=
EXTT11=
PLAYORDER=
